<?xml version="1.0" encoding="utf-8" ?><svg xmlns="http://www.w3.org/2000/svg" xmlns:xlink="http://www.w3.org/1999/xlink" width="1024" height="1024" viewBox="0 0 1024 1024"><path fill="#2FB5AA" d="M0 0L1024 0L1024 1024L0 1024L0 0Z"/><path fill="#010101" d="M47.315 465.399L47.4809 261.554L47.2967 209.066C47.1619 191.045 46.2798 173.544 49.0779 155.663C57.651 100.876 102.957 54.6097 157.636 45.1556C170.677 42.9068 183.678 43.2165 196.947 43.2961L233.014 43.4482L371.961 43.4273L841.312 43.3574C908.279 43.8487 964.891 91.3308 976.263 157.6C978.72 171.92 978.361 184.792 978.319 199.209L978.193 238.597L978.076 368.169L977.95 689.861C977.919 742.899 978.004 795.96 977.985 848.98C977.962 913.015 929.83 969.319 867.415 981.441C854.95 983.861 841.495 983.439 828.806 983.434L789.174 983.412L658.293 983.48L359.919 982.997L238.916 982.978C218.37 982.974 197.532 983.052 177.131 982.927C144.074 982.724 108.9 967.363 86.0986 943.304C69.4226 925.709 55.771 901.737 50.7025 877.83C46.3968 857.521 47.513 833.365 47.5378 812.32L47.621 738.372L47.1804 482.112C45.083 479.927 32.8826 470.057 30.269 468.087C36.276 467.338 41.3586 466.502 47.315 465.399Z"/><path fill="#0E234C" d="M47.315 465.399L47.4809 261.554L47.2967 209.066C47.1619 191.045 46.2798 173.544 49.0779 155.663C57.651 100.876 102.957 54.6097 157.636 45.1556C170.677 42.9068 183.678 43.2165 196.947 43.2961L233.014 43.4482L371.961 43.4273L841.312 43.3574C908.279 43.8487 964.891 91.3308 976.263 157.6C978.72 171.92 978.361 184.792 978.319 199.209L978.193 238.597L978.076 368.169L977.95 689.861C977.919 742.899 978.004 795.96 977.985 848.98C977.962 913.015 929.83 969.319 867.415 981.441C854.95 983.861 841.495 983.439 828.806 983.434L789.174 983.412L658.293 983.48L359.919 982.997L238.916 982.978C218.37 982.974 197.532 983.052 177.131 982.927C144.074 982.724 108.9 967.363 86.0986 943.304C69.4226 925.709 55.771 901.737 50.7025 877.83C46.3968 857.521 47.513 833.365 47.5378 812.32L47.621 738.372L47.1804 482.112C57.237 489.836 64.7004 495.385 75.36 502.394C102.459 516.63 123.085 525.339 153.589 531.25C163.281 533.129 173.091 533.955 182.138 535.624C183.317 546.67 184.61 557.22 187.27 568.009C187.747 569.942 188.377 572.507 188.679 574.454C202.273 635.42 229.284 679.849 267.51 727.995C263.494 729.634 255.609 732.627 252.374 735.187C226.764 755.447 205.353 783.533 185.31 809.089C174.728 822.58 163.67 836.962 154.661 850.978C155.451 852.305 161.642 860.198 162.981 861.993C168.029 855.015 180.449 837.79 187.037 833.434C192.092 833.645 197.301 833.501 202.371 833.436C211.279 834.638 214.682 836.389 219.611 844.276C225.208 837.655 229.981 833.924 239.114 833.382C248.58 832.654 275.812 831.964 284.329 833.242C286.326 833.751 289.813 833.964 291.44 832.611C292.059 834.41 297.248 833.132 299.772 833.705C305.824 835.077 308.54 837.377 312.965 841.176C317.035 832.164 318.324 834.086 326.676 831.776L327.452 831.554C328.436 833.947 331.879 833.489 334.306 833.618C332.125 827.038 329.903 817.907 327.93 811.019L315.621 768.49C320.252 769.429 326.645 772.661 331.068 774.252C343.588 778.755 377.607 794.278 389.263 795.071C391.302 796.382 394.224 798.502 396.435 799.151L397.082 798.953C400.141 799.139 413.695 805.156 415.221 806.757C430.483 815.511 472.407 820.486 490.046 821.857C490.031 831.709 489.949 841.642 490.073 851.487C491.764 849.504 493.711 847.405 495.039 845.197C508.169 835.321 514.657 834.183 530.195 833.955C531.625 833.971 533.201 833.957 534.616 834.019L534.59 821.531C566.571 819.639 589.4 814.66 619.124 804.008C630.722 800.207 640.436 794.028 649.644 786.081L654.194 781.805C656.711 779.561 659.348 776.936 661.807 774.587C663.661 771.517 671.005 764.038 673.61 760.435C679.592 752.16 684.169 744.035 689.292 735.256L692.07 729.59C700.728 733.857 707.276 735.255 715.894 738.464C714.804 747.228 710.565 768.567 707.688 777.012C706.077 791.141 694.625 820.103 688.883 833.046C690.681 832.74 691.869 832.875 693.669 832.957C709.107 833.514 716.182 832.776 728.353 843.238C729.196 843.975 731.234 845.375 732.222 846.093C734.152 841.827 735.345 837.617 737.448 833.234C747.277 832.916 757.215 833.017 767.057 833.034C794.286 833.021 807.631 829.838 825.502 853.647C825.428 848.496 824.813 838.369 823.522 833.408C826.491 832.676 836.345 832.929 840.31 832.696C844.764 832.277 857.95 833.164 861.055 831.892C858.481 829.031 855.746 825.653 853.229 822.689C837.548 806.167 826.499 791.415 812.252 774.436C799.805 759.602 776.304 737.136 761.08 724.657C752.045 719.671 722.684 720.374 709.605 717.167C712.751 708.978 725.394 681.938 724.404 675.118C722.602 662.706 704.833 646.602 695.241 639.362C699.621 633.119 701.464 629.531 704.64 622.688L714.414 620.952C754.412 611.777 790.402 569.735 792.648 528.988C793.823 507.665 788.557 492.962 778.962 474.654C783.914 463.266 785.681 457.616 789.168 445.797C790.376 438.875 792.327 432.04 793.532 424.999C804.463 361.157 788.981 286.337 740.107 240.948C749.818 208.363 730.095 170.171 713.044 143.176C717.335 138.862 729.469 129.478 734.594 125.267L772.256 94.2513C779.978 87.8951 791.059 79.0111 798.191 72.1624C805.116 72.1454 814.008 72.483 820.688 71.9506C811.136 71.139 794.811 71.5861 784.732 71.5168L702.996 71.4841L458.535 71.0179L273.356 70.9858L219.589 71.0012C206.416 71.0054 192.638 70.4477 179.614 72.3484C124.366 80.4116 80.512 126.547 76.5003 182.473C75.589 195.176 75.9329 208.054 75.9321 220.835L75.9396 282.25C75.9365 296.973 75.2449 453.299 76.5414 455.94C70.6589 459.719 54.4741 464.088 47.315 465.399Z"/><path fill="#33B0E1" d="M820.688 71.9506C827.742 71.8718 835.374 71.5542 842.355 72.4627C902.283 80.2622 949.421 133.477 950.016 193.743L950.064 276.385C950.064 293.777 950.498 313.44 950.015 330.641C949.907 370.439 950.51 411.071 949.916 450.757L949.552 447.593L948.926 447.218C947.019 449.361 945.661 452.077 943.903 454.384C939.615 460.009 935.059 465.449 930.444 470.808C906.63 498.459 853.666 553.561 815.729 555.924C809.112 556.336 802.753 554.727 797.642 550.352C795.489 548.509 793.175 545.521 793 542.579C792.991 542.436 793.007 542.292 793.011 542.149C792.263 538.573 793.559 529.765 793.603 525.266C793.807 504.648 788.962 492.058 779.869 474.39C782.574 468.876 789.833 451.532 789.168 445.797C790.376 438.875 792.327 432.04 793.532 424.999C804.463 361.157 788.981 286.337 740.107 240.948C749.818 208.363 730.095 170.171 713.044 143.176C717.335 138.862 729.469 129.478 734.594 125.267L772.256 94.2513C779.978 87.8951 791.059 79.0111 798.191 72.1624C805.116 72.1454 814.008 72.483 820.688 71.9506Z"/><path fill="#1A86C6" d="M793.011 542.149C798.276 526.914 803.239 510.93 809.51 496.122C836.269 432.926 881.991 355.203 950.015 330.641C949.907 370.439 950.51 411.071 949.916 450.757L949.552 447.593L948.926 447.218C947.019 449.361 945.661 452.077 943.903 454.384C939.615 460.009 935.059 465.449 930.444 470.808C906.63 498.459 853.666 553.561 815.729 555.924C809.112 556.336 802.753 554.727 797.642 550.352C795.489 548.509 793.175 545.521 793 542.579C792.991 542.436 793.007 542.292 793.011 542.149Z"/><defs><linearGradient id="gradient_0" gradientUnits="userSpaceOnUse" x1="817.46588" y1="522.16455" x2="836.20233" y2="716.02161"><stop offset="0" stop-color="#1887C8"/><stop offset="1" stop-color="#30A7D8"/></linearGradient></defs><path fill="url(#gradient_0)" d="M789.168 445.797C789.833 451.532 782.574 468.876 779.869 474.39C788.962 492.058 793.807 504.648 793.603 525.266C793.559 529.765 792.263 538.573 793.011 542.149C793.007 542.292 792.991 542.436 793 542.579C793.175 545.521 795.489 548.509 797.642 550.352C802.753 554.727 809.112 556.336 815.729 555.924C853.666 553.561 906.63 498.459 930.444 470.808C935.059 465.449 939.615 460.009 943.903 454.384C945.661 452.077 947.019 449.361 948.926 447.218L949.552 447.593L949.916 450.757L949.903 454.475C950.363 466.779 950.031 480.88 950.018 493.298L950.036 563.259L950.256 608.784C950.3 616.391 950.712 627.872 950.066 635.119C949.787 631.328 949.854 628.259 949.927 624.449C945.579 629.484 935.814 635.56 930.348 639.696C885.071 673.949 835.638 704.985 780.553 720.491C776.597 721.604 763.561 723.469 761.08 724.657C752.045 719.671 722.684 720.374 709.605 717.167C712.751 708.978 725.394 681.938 724.404 675.118C722.602 662.706 704.833 646.602 695.241 639.362C699.621 633.119 701.464 629.531 704.64 622.688L714.414 620.952C754.412 611.777 790.402 569.735 792.648 528.988C793.823 507.665 788.557 492.962 778.962 474.654C783.914 463.266 785.681 457.616 789.168 445.797Z"/><path fill="#5FC6E4" d="M789.168 445.797C789.833 451.532 782.574 468.876 779.869 474.39C788.962 492.058 793.807 504.648 793.603 525.266C793.559 529.765 792.263 538.573 793.011 542.149C793.007 542.292 792.991 542.436 793 542.579C793.175 545.521 795.489 548.509 797.642 550.352C802.753 554.727 809.112 556.336 815.729 555.924C853.666 553.561 906.63 498.459 930.444 470.808C935.059 465.449 939.615 460.009 943.903 454.384C945.661 452.077 947.019 449.361 948.926 447.218L949.552 447.593L949.916 450.757L949.903 454.475C948.819 469.784 949.846 491.496 949.53 507.702C938.407 519.668 928.435 531.382 916.245 542.53C871.359 583.586 817.161 624.393 754.041 627.652C741.269 628.312 725.769 626.703 714.414 620.952C754.412 611.777 790.402 569.735 792.648 528.988C793.823 507.665 788.557 492.962 778.962 474.654C783.914 463.266 785.681 457.616 789.168 445.797Z"/><path fill="#33B0E1" d="M76.5796 772.699C77.892 763.428 76.1111 749.255 77.0947 739.781C77.4465 736.391 82.2052 725.624 83.8078 721.815C102.967 676.289 132.914 633.817 165.756 597.181C170.823 591.528 182.664 578.684 188.679 574.454C202.273 635.42 229.284 679.849 267.51 727.995C263.494 729.634 255.609 732.627 252.374 735.187C226.764 755.447 205.353 783.533 185.31 809.089C174.728 822.58 163.67 836.962 154.661 850.978C149.741 841.172 145.157 834.059 132.809 833.529C120.763 833.011 104.328 832.139 101.039 847.287C99.8371 852.822 100.411 861.75 100.429 867.668L100.421 900.068C78.4403 867.959 76.435 854.607 76.4571 816.905L76.5796 772.699Z"/><path fill="#5FC6E4" d="M761.08 724.657C763.561 723.469 776.597 721.604 780.553 720.491C835.638 704.985 885.071 673.949 930.348 639.696C935.814 635.56 945.579 629.484 949.927 624.449C949.854 628.259 949.787 631.328 950.066 635.119L950.424 772.937C948.871 774.437 939.459 779.721 936.963 781.28C910.255 797.958 882.565 811.204 853.229 822.689C837.548 806.167 826.499 791.415 812.252 774.436C799.805 759.602 776.304 737.136 761.08 724.657Z"/><path fill="#1A86C6" d="M75.36 502.394C102.459 516.63 123.085 525.339 153.589 531.25C163.281 533.129 173.091 533.955 182.138 535.624C183.317 546.67 184.61 557.22 187.27 568.009C187.747 569.942 188.377 572.507 188.679 574.454C182.664 578.684 170.823 591.528 165.756 597.181C132.914 633.817 102.967 676.289 83.8078 721.815C82.2052 725.624 77.4465 736.391 77.0947 739.781C76.1111 749.255 77.892 763.428 76.5796 772.699C75.9901 762.367 76.5108 747.369 76.4657 736.564L75.973 676.549L75.36 502.394Z"/><path fill="#F47731" d="M692.07 729.59C700.728 733.857 707.276 735.255 715.894 738.464C714.804 747.228 710.565 768.567 707.688 777.012C706.077 791.141 694.625 820.103 688.883 833.046C685.644 833.321 680.1 833.168 676.688 833.181C670.324 833.209 662.792 833.154 656.877 834.236C644.686 836.469 629.519 848.518 627.556 861.669C624.458 882.424 626.984 907.533 626.162 928.813C625.943 934.484 626.83 937.882 630.236 942.289C615.518 952.453 603.883 960.359 590.638 972.359C591.364 964.78 592.067 957.2 592.768 949.619C594.236 933.759 592.231 918.018 592.084 902.006L591.932 866.674C591.898 859.073 593.135 846.489 588.764 840.283C586.06 836.443 580.064 834.637 575.602 834.338C562.154 833.465 548.06 834.562 534.616 834.019L534.59 821.531C566.571 819.639 589.4 814.66 619.124 804.008C630.722 800.207 640.436 794.028 649.644 786.081L654.194 781.805C656.711 779.561 659.348 776.936 661.807 774.587C663.661 771.517 671.005 764.038 673.61 760.435C679.592 752.16 684.169 744.035 689.292 735.256L692.07 729.59Z"/><path fill="#994512" d="M689.292 735.256C697.211 739.309 703.114 742.138 711.434 745.43C706.019 749.489 699.878 754.546 694.433 758.266C682.276 766.572 669.554 774.798 657.147 782.753C659.028 780.736 662.127 778.007 662.092 775.256L661.807 774.587C663.661 771.517 671.005 764.038 673.61 760.435C679.592 752.16 684.169 744.035 689.292 735.256Z"/><path fill="#994512" d="M707.688 777.012C706.077 791.141 694.625 820.103 688.883 833.046C685.644 833.321 680.1 833.168 676.688 833.181C685.853 823.617 694.834 804.252 700.024 792.075C701.624 788.321 705.318 779.79 707.688 777.012Z"/><path fill="#F47731" d="M315.621 768.49C320.252 769.429 326.645 772.661 331.068 774.252C343.588 778.755 377.607 794.278 389.263 795.071C391.302 796.382 394.224 798.502 396.435 799.151L397.082 798.953C400.141 799.139 413.695 805.156 415.221 806.757C430.483 815.511 472.407 820.486 490.046 821.857C490.031 831.709 489.949 841.642 490.073 851.487C478.67 870.663 480.63 876.306 480.735 898.495L455.721 898.395C454.964 881.933 455.998 864.862 455.523 848.396C455.06 832.333 444.134 833.782 432.098 834.011C421.168 834.219 414.48 832.2 406.896 841.822C393.273 831.669 381.804 833.513 365.709 833.522L334.306 833.618C332.125 827.038 329.903 817.907 327.93 811.019L315.621 768.49Z"/><path fill="#33B0E1" d="M853.229 822.689C882.565 811.204 910.255 797.958 936.963 781.28C939.459 779.721 948.871 774.437 950.424 772.937L950.332 816.129C950.437 855.218 947.862 871.473 921.696 902.333C926.242 889.939 925.415 885.133 925.865 872.343C926.707 848.363 912.911 835.087 889.384 832.973C884.807 832.562 863.57 833.845 861.055 831.892C858.481 829.031 855.746 825.653 853.229 822.689Z"/><path fill="#FEFEFD" d="M221.912 898.195C221.843 860.406 215.281 843.414 261.434 846.786C270.402 846.898 279.317 846.735 288.29 846.827C295.645 846.902 301.626 847.611 306.956 853.328C311.536 858.24 311.803 863.476 311.83 869.901C311.873 880.077 311.756 890.288 311.679 900.48C311.692 903.07 311.74 905.594 311.707 908.252C311.628 914.736 312.553 922.584 307.985 927.861C303.742 932.763 297.837 934.419 291.545 934.465C278.727 934.56 265.823 934.413 252.997 934.36C243.419 934.075 234.642 935.606 227.226 927.97C222.666 923.275 221.91 918.658 221.855 912.276C221.814 907.578 221.875 902.879 221.912 898.195Z"/><path fill="#F8DAC2" d="M245.412 892.384C245.471 896.274 244.822 908.548 246.196 911.145C250.228 913.516 281.028 912.466 288.025 912.479C287.912 907.98 287.837 903.446 287.575 898.955L288.481 901.414C293.395 901.957 303.598 898.913 311.679 900.48C311.692 903.07 311.74 905.594 311.707 908.252C311.628 914.736 312.553 922.584 307.985 927.861C303.742 932.763 297.837 934.419 291.545 934.465C278.727 934.56 265.823 934.413 252.997 934.36C243.419 934.075 234.642 935.606 227.226 927.97C222.666 923.275 221.91 918.658 221.855 912.276C221.814 907.578 221.875 902.879 221.912 898.195C225.566 899.935 239.331 898.935 244.8 898.93L245.412 892.384Z"/><path fill="#0E234C" d="M245.363 869.049C251.685 869.029 283.852 868.156 286.943 870.336C288.077 873.922 287.465 893.658 287.575 898.955C287.837 903.446 287.912 907.98 288.025 912.479C281.028 912.466 250.228 913.516 246.196 911.145C244.822 908.548 245.471 896.274 245.412 892.384C245.453 884.578 245.486 876.854 245.363 869.049Z"/><path fill="#FEFEFD" d="M323.907 848.035L364.228 847.963C380.077 847.935 401.122 844.584 406.735 863.787C409.494 873.224 407.988 881.241 403.568 889.787C406.166 893.019 407.257 894.296 408.938 898.072C415.882 920.938 402.602 934.953 379.848 934.125C361.721 933.465 342.776 934.736 324.587 933.845C323.967 922.652 323.968 909.601 324.001 898.394L323.907 848.035Z"/><defs><linearGradient id="gradient_1" gradientUnits="userSpaceOnUse" x1="368.34589" y1="934.28101" x2="365.7981" y2="898.17358"><stop offset="0" stop-color="#F6B682"/><stop offset="1" stop-color="#FED6AD"/></linearGradient></defs><path fill="url(#gradient_1)" d="M408.938 898.072C415.882 920.938 402.602 934.953 379.848 934.125C361.721 933.465 342.776 934.736 324.587 933.845C323.967 922.652 323.968 909.601 324.001 898.394C331.082 902.359 343.661 898.77 351.455 898.599C366.602 898.268 381.636 898.088 396.787 898.594C399.035 898.669 407.408 899.132 408.938 898.072Z"/><path fill="#1E263F" d="M348.775 902.59C353.653 902.556 394.527 898.695 384.945 910.868C378.286 913.641 357.407 912.546 348.971 912.5C348.833 909.169 348.804 905.921 348.775 902.59Z"/><path fill="#0E234C" d="M348.95 871.581C350.93 869.936 374.915 870.58 378.775 870.677C380.853 870.729 381.817 871.268 383.083 872.796C383.395 873.623 383.534 874.412 383.609 875.288C383.731 876.71 383.631 877.904 382.501 878.933C378.398 882.668 355.208 881.031 348.987 881L348.95 871.581Z"/><path fill="#1E263F" d="M348.95 871.581C350.93 869.936 374.915 870.58 378.775 870.677C380.853 870.729 381.817 871.268 383.083 872.796C376.233 871.335 357.357 872.162 348.95 871.581Z"/><defs><linearGradient id="gradient_2" gradientUnits="userSpaceOnUse" x1="684.87067" y1="917.48761" x2="685.65485" y2="847.74316"><stop offset="0" stop-color="#FAE4C9"/><stop offset="1" stop-color="#FEFFFF"/></linearGradient></defs><path fill="url(#gradient_2)" d="M640.649 892.231C640.445 873.117 636.548 852.103 661.759 847.716C671.317 846.053 682.917 847.794 692.118 847.066C738.735 843.377 729.752 873.956 730.014 905.914L729.917 932.779C722.672 933.041 712.041 932.858 704.893 932.529C704.768 926.492 704.145 909.419 705.171 904.432C699.677 904.529 667.722 903.845 665.914 905.687C665.711 907.161 665.587 908.192 665.512 909.703C665.985 912.528 665.693 929.36 665.671 933.028L640.79 932.977C640.763 919.384 640.52 905.835 640.649 892.231Z"/><path fill="#F8DAC2" d="M705.171 904.432C707.224 907.338 704.504 906.961 706.253 908.98C712.077 909.834 722.108 909.382 728.237 911.372C729.389 909.861 728.82 908.259 730.014 905.914L729.917 932.779C722.672 933.041 712.041 932.858 704.893 932.529C704.768 926.492 704.145 909.419 705.171 904.432Z"/><path fill="#F8DAC2" d="M640.649 892.231C641.454 897.886 641.264 910.786 641.593 917.22C652.984 911.929 651.821 910.462 664.602 912.246C664.87 911.279 664.887 911.116 664.969 910.113L665.512 909.703C665.985 912.528 665.693 929.36 665.671 933.028L640.79 932.977C640.763 919.384 640.52 905.835 640.649 892.231Z"/><path fill="#0E234C" d="M667.024 871.41C670.006 870.58 701.179 870.641 703.749 871.956C705.253 874.245 705.54 878.546 704.461 880.961C702.182 881.959 671.208 881.528 666.455 881.327C665.6 881.291 665.95 881.406 665.181 880.509C664.62 877.339 664.23 873.585 667.024 871.41Z"/><path fill="#1E263F" d="M667.024 871.41L668.24 871.812C667.284 875.073 666.373 877.59 666.283 880.996C672.607 881.465 680.067 880.445 686.663 880.248C691.162 880.113 700.235 880.959 703.95 880.451L704.461 880.961C702.182 881.959 671.208 881.528 666.455 881.327C665.6 881.291 665.95 881.406 665.181 880.509C664.62 877.339 664.23 873.585 667.024 871.41Z"/><path fill="#FEFEFD" d="M493.872 898.818C493.768 884.704 491.284 868.387 501.944 857.566C515.523 843.782 535.203 848.117 552.631 847.819C560.584 847.683 569.826 847.552 577.722 847.931C577.949 855.763 577.796 863.795 577.735 871.646C569.68 871.629 522.184 870.854 518.581 872.57C516.898 874.348 516.47 877.843 517.522 879.986C520.46 880.636 531.876 879.987 535.829 879.997C549.877 880.03 564.005 879.837 578.056 879.99L578.063 897.956C578.095 899.79 578.304 901.587 577.606 903.251C575.172 903.532 572.995 903.487 570.56 903.513C554.247 903.685 537.819 903.332 521.522 904.003C521.519 906.481 520.983 909.824 522.871 911.73C524.278 913.151 572.118 912.57 577.984 912.6C577.994 918.942 578.233 927.399 577.286 933.427C562.249 934.53 545.73 932.945 530.55 933.641C519.844 934.132 510.563 931.238 502.709 923.802C494.813 916.325 494.043 909.046 493.872 898.818Z"/><path fill="#F8DAC2" d="M493.872 898.818L494.413 898.786C499.599 898.443 503.83 897.199 509.461 897.144C530.726 896.938 551.912 897.727 573.164 897.898C575.282 897.915 575.882 896.799 578.063 897.956C578.095 899.79 578.304 901.587 577.606 903.251C575.172 903.532 572.995 903.487 570.56 903.513C554.247 903.685 537.819 903.332 521.522 904.003C521.519 906.481 520.983 909.824 522.871 911.73C524.278 913.151 572.118 912.57 577.984 912.6C577.994 918.942 578.233 927.399 577.286 933.427C562.249 934.53 545.73 932.945 530.55 933.641C519.844 934.132 510.563 931.238 502.709 923.802C494.813 916.325 494.043 909.046 493.872 898.818Z"/><path fill="#FEFEFD" d="M827.795 847.939L867.145 847.869C878.869 847.846 893.981 845.873 903.044 854.724C913.598 865.033 912.182 885.498 904.375 896.842C892.551 911.378 868.914 907.833 852.004 907.744L851.858 932.971L827.506 932.865L827.512 894.372C827.487 882.556 826.771 858.834 827.795 847.939Z"/><path fill="#F8DAC2" d="M827.512 894.372C827.909 896.297 827.64 896.857 828.812 897.846C836.87 898.49 852.897 898.111 861.294 898.108C872.564 898.105 893.962 898.927 904.375 896.842C892.551 911.378 868.914 907.833 852.004 907.744L851.858 932.971L827.506 932.865L827.512 894.372Z"/><path fill="#0E234C" d="M858.255 869.74C863.898 869.629 873.257 868.872 878.48 870.196C887.698 872.53 887.92 880.341 879.625 884.751C879.451 884.783 879.278 884.815 879.104 884.848L878.233 884.989C872.415 885.976 858.683 885.469 852.05 885.374L852.014 869.912L858.255 869.74Z"/><defs><linearGradient id="gradient_3" gradientUnits="userSpaceOnUse" x1="763.50201" y1="918.91846" x2="785.31006" y2="845.86121"><stop offset="0" stop-color="#FBECD3"/><stop offset="1" stop-color="white"/></linearGradient></defs><path fill="url(#gradient_3)" d="M740.402 847.299L772.636 847.386C779.566 847.396 787.291 847.028 794.096 848.074C817.173 851.621 825.412 877.4 813.683 896.002C807.865 903.12 799.652 906.916 790.644 907.702C785.652 908.138 770.911 908.084 766.067 907.27C765.934 907.337 765.773 907.366 765.668 907.472C764.185 908.949 764.748 928.942 764.653 932.885C756.939 933.125 748.467 932.946 740.697 932.932C740.418 922.652 740.521 911.532 740.553 901.25C740.184 883.534 740.422 865.072 740.402 847.299Z"/><path fill="#F8DAC2" d="M740.553 901.25C741.434 905.106 741.646 909.514 742.471 912.507C746.638 912.635 756.166 908.527 762.096 908.93C763.044 910.758 763.424 912.313 764.008 914.263C764.012 911.906 763.877 908.494 764.32 906.269C765.2 906.663 765.71 906.685 766.067 907.27C765.934 907.337 765.773 907.366 765.668 907.472C764.185 908.949 764.748 928.942 764.653 932.885C756.939 933.125 748.467 932.946 740.697 932.932C740.418 922.652 740.521 911.532 740.553 901.25Z"/><path fill="#F8DAC2" d="M764.32 906.269L764.108 905.735C765.018 904.104 765.919 902.509 766.772 900.846C765.131 899.793 762.916 901.607 761.23 900.632C774.871 898.835 787.566 899.483 801.159 898.605C805.361 898.333 809.079 893.774 813.683 896.002C807.865 903.12 799.652 906.916 790.644 907.702C785.652 908.138 770.911 908.084 766.067 907.27C765.71 906.685 765.2 906.663 764.32 906.269Z"/><path fill="#0E234C" d="M764.269 869.887C773.104 869.908 803.511 865.893 793.221 882.619C787.821 886.268 772.045 885.034 764.569 885.092C764.31 880.08 764.323 874.915 764.269 869.887Z"/><path fill="#FEFEFD" d="M187.923 846.53C210.045 846.18 209.461 846.228 209.526 869.394C209.554 879.136 209.308 889.781 209.481 899.494C202.31 900.587 190.344 900.246 182.901 900.019L182.909 886.601C180.309 889.568 177.052 894.19 174.615 897.439C161.403 917.108 160.69 914.178 147.651 897.129C145.094 893.993 143.06 891.38 140.724 888.083L140.634 896.94C136.772 897.609 118.523 899.23 114.847 898.91C114.784 891.055 113.672 852.009 115.291 848.081C119.317 845.76 130.806 846.542 135.421 847.107C145.139 856.483 152.201 869.355 160.649 879.288C168.192 870.865 180.713 851.977 187.923 846.53Z"/><path fill="#F8DAC2" d="M147.651 897.129C154.94 896.024 166.201 897.696 174.615 897.439C161.403 917.108 160.69 914.178 147.651 897.129Z"/><defs><linearGradient id="gradient_4" gradientUnits="userSpaceOnUse" x1="455.31863" y1="937.70764" x2="447.17719" y2="895.37006"><stop offset="0" stop-color="#FAB77F"/><stop offset="1" stop-color="#FDDBB8"/></linearGradient></defs><path fill="url(#gradient_4)" d="M443.039 898.917L442.99 912.029L469.252 912.061C474.355 912.072 481.564 911.909 486.489 912.547L486.521 933.416C478.157 933.433 423.892 934.274 419.663 932.454C418.389 929.18 418.762 904.524 418.886 899.637C426.03 899.831 435.932 899.474 443.039 898.917Z"/><path fill="#FEFEFD" d="M419.051 848.176C426.157 847.746 435.886 847.831 442.865 848.647C443.383 864.838 443.037 882.609 443.039 898.917C435.932 899.474 426.03 899.831 418.886 899.637C419.089 882.514 418.684 865.334 419.051 848.176Z"/><path fill="#F47731" d="M778.819 922.965C795.109 922.637 801.469 922.85 814.969 913.95C814.103 916.869 813.968 918.066 813.622 921.004C812.672 926.277 811.532 931.725 811.287 937.059C799.185 942.998 782.764 962.733 776.061 974.387C776.878 961.531 778.264 946.275 778.607 933.57L778.819 922.965Z"/><path fill="#D84F1D" d="M778.819 922.965C795.109 922.637 801.469 922.85 814.969 913.95C814.103 916.869 813.968 918.066 813.622 921.004C808.194 923.694 802.695 926.656 796.737 927.957C791.32 929.139 785.479 929.491 780.188 931.29C778.933 931.717 779.121 932.165 778.607 933.57L778.819 922.965Z"/><defs><linearGradient id="gradient_5" gradientUnits="userSpaceOnUse" x1="124.25014" y1="934.43378" x2="131.72023" y2="896.65924"><stop offset="0" stop-color="#F1BA8E"/><stop offset="1" stop-color="#FCD8B7"/></linearGradient></defs><path fill="url(#gradient_5)" d="M114.847 898.91C118.523 899.23 136.772 897.609 140.634 896.94C140.614 908.079 141.031 923.154 140.443 933.98C131.922 934.189 123.356 934.088 114.83 934.042L114.847 898.91Z"/><path fill="#F8DAC2" d="M182.901 900.019C190.344 900.246 202.31 900.587 209.481 899.494L209.491 934.102C200.97 934.077 191.967 934.204 183.488 933.997C182.769 926.629 182.801 908.024 182.901 900.019Z"/><path fill="#F47731" d="M679.188 919.463L691.541 919.478C691.594 936.874 689.069 947.009 710.796 944.968C705.154 949.119 697.788 953.38 691.75 957.044C684.762 961.383 679.418 964.938 672.929 969.894C674.314 957.358 675.741 945.454 678.9 933.229C679.563 930.666 679.21 922.484 679.188 919.463Z"/><path fill="#F47731" d="M497.959 937.839C502.547 940.842 506.704 942.481 511.774 944.503C503.375 949.52 494.002 958.067 486.485 964.655L479.21 970.734C480.85 962.157 482.599 955.022 484.733 946.559C492.503 947.619 495.497 944.755 497.959 937.839Z"/><path fill="#F47731" d="M408.999 939.98C409.153 940.066 414.572 945.682 415.449 946.51C406.697 952.554 399.321 957.563 391.231 964.396L386.913 968.115C388.803 962.14 391.165 954.565 392.158 948.442C399.742 945.414 402.392 944.738 408.999 939.98Z"/><defs><linearGradient id="gradient_6" gradientUnits="userSpaceOnUse" x1="317.46896" y1="4.5487504" x2="446.07346" y2="284.96466"><stop offset="0" stop-color="#1353A3"/><stop offset="1" stop-color="#1770BE"/></linearGradient></defs><path fill="url(#gradient_6)" d="M76.5414 455.94C75.2449 453.299 75.9365 296.973 75.9396 282.25L75.9321 220.835C75.9329 208.054 75.589 195.176 76.5003 182.473C80.512 126.547 124.366 80.4116 179.614 72.3484C192.638 70.4477 206.416 71.0054 219.589 71.0012L273.356 70.9858L458.535 71.0179L702.996 71.4841L784.732 71.5168C794.811 71.5861 811.136 71.139 820.688 71.9506C814.008 72.483 805.116 72.1454 798.191 72.1624C791.059 79.0111 779.978 87.8951 772.256 94.2513L734.594 125.267C729.469 129.478 717.335 138.862 713.044 143.176C700.009 126.24 685.161 110.274 670.14 95.0698C676.211 112.206 683.625 146.426 684.214 164.748C658.848 127.188 622.406 98.7 577.196 90.2512C558.019 86.6675 550.139 87.4719 531.283 86.9503C546.551 95.6981 563.04 107.882 574.759 121.07C513.725 105.779 458.694 109.025 397.893 123.792C366.023 131.533 334.394 143.247 302.658 151.978C246.417 167.451 189.132 171.717 132.835 154.283C165.535 197.721 183.207 225.791 230.617 254.347C213.812 276.853 197.833 300.605 184.72 325.446C170.56 352.274 159.351 376.365 140.945 400.595C121.298 426.459 104.754 440.743 76.5414 455.94Z"/><path fill="#F47731" d="M681.613 649.709C692.225 656.909 702.798 665.856 708.909 677.366C694.937 711.533 678.709 753.939 653.219 781.268L654.194 781.805L649.644 786.081C640.436 794.028 630.722 800.207 619.124 804.008L618.583 803.229C595.752 810.555 575.002 814.524 550.994 816.011C546.334 816.3 538.973 817.228 534.538 816.965C534.889 812.935 534.681 805.328 534.665 801.077L534.531 770.777C534.515 766.514 534.265 759.029 534.818 755.038C580.585 752.946 647.269 736.209 681.154 702.677C685.916 697.964 690.83 688.32 690.43 681.535C689.741 669.864 678.389 663.64 669.067 659.429C672.795 656.628 678.279 652.754 681.613 649.709Z"/><path fill="#D84F1D" d="M535.071 762.226C575.81 757.816 614.52 749.991 651.652 731.905C657.586 729.015 663.295 725.884 669.169 722.945C665.386 728.095 659.09 733.532 654.659 738.217C628.444 765.933 594.394 787.213 559.984 803.257C553.758 806.161 542.013 812.511 535.452 814.145C535.051 815.269 534.851 815.808 534.538 816.965C534.889 812.935 534.681 805.328 534.665 801.077L534.531 770.777C534.515 766.514 534.265 759.029 534.818 755.038C534.942 757.472 535.063 759.782 535.071 762.226Z"/><path fill="#994512" d="M648.142 786.004L649.644 786.081C640.436 794.028 630.722 800.207 619.124 804.008L618.583 803.229C621.028 801.837 626.886 800.056 629.945 798.495C636.389 795.205 642.457 790.466 648.142 786.004Z"/><path fill="#33140B" d="M653.219 781.268L654.194 781.805L649.644 786.081L648.142 786.004C649.853 784.446 651.533 782.852 653.219 781.268Z"/><path fill="#F47731" d="M339.762 646.035C343.12 648.831 346.538 651.901 349.85 654.78C339.324 662.762 332.169 667.369 329.123 680.623C334.8 700.505 361.717 718.131 379.308 727.311C408.988 742.799 442.837 750 475.861 753.841C479.922 754.314 486.133 754.592 489.85 755.748C490.258 757.29 490.055 758.358 489.995 759.997L489.936 796.267C489.943 800.683 489.736 811.084 490.289 814.981L489.848 816.443C487.82 817.534 479.732 816.477 477.059 816.339C455.209 815.215 436.352 812.622 415.221 806.757C413.695 805.156 400.141 799.139 397.082 798.953L396.435 799.151C394.224 798.502 391.302 796.382 389.263 795.071C386.353 792.713 383.773 790.593 381.011 788.071L381.736 787.747C359.897 768.771 341.164 736.779 328.947 711.067C323.475 699.552 317.848 689.299 314.92 676.732C319.112 664.636 329.989 653.86 339.762 646.035Z"/><path fill="#D84F1D" d="M342.839 713.269C340.667 711.376 338.179 709.68 336.773 707.323L337.392 708.072L338.001 707.817C340.213 709.316 341.858 710.97 343.808 712.784C349.637 717.211 353.264 720.267 359.576 724.04C398.426 747.265 442.993 759.119 488.046 761.092C489.117 761.139 489.48 760.732 489.995 759.997L489.936 796.267C489.943 800.683 489.736 811.084 490.289 814.981C479.507 811.69 469.122 806.733 459.097 802.47C416.963 784.553 379.555 758.28 351.924 721.44C350.108 719.018 345.322 715.272 342.839 713.269Z"/><path fill="#994512" d="M381.736 787.747C387.316 791.752 390.909 795.254 397.082 798.953L396.435 799.151C394.224 798.502 391.302 796.382 389.263 795.071C386.353 792.713 383.773 790.593 381.011 788.071L381.736 787.747Z"/><path fill="#D84F1D" d="M264.44 761.864C267.647 771.264 270.153 779.847 272.906 789.376C276.01 802.675 282.194 820.677 284.329 833.242C275.812 831.964 248.58 832.654 239.114 833.382C229.981 833.924 225.208 837.655 219.611 844.276C214.682 836.389 211.279 834.638 202.371 833.436C210.617 821.982 223.166 807.713 232.198 796.729C241.233 785.742 253.776 771.15 264.44 761.864Z"/><path fill="#994512" d="M272.906 789.376C276.01 802.675 282.194 820.677 284.329 833.242C275.812 831.964 248.58 832.654 239.114 833.382C242.321 832.477 268.304 794.929 272.906 789.376Z"/><path fill="#EAB164" d="M693.669 832.957C706.753 805.505 713.052 783.17 718.628 753.065L719.327 753.261C730.435 756.286 743.782 754.729 751.791 762.908C748.624 781.33 743.346 799.872 737.439 817.582C734.655 825.929 731.829 835.162 728.353 843.238C716.182 832.776 709.107 833.514 693.669 832.957Z"/><path fill="#D84F1D" d="M757.275 760.858C775.262 772.448 795.35 800.459 810.679 816.51C813.502 819.466 820.789 832.939 823.522 833.408C824.813 838.369 825.428 848.496 825.502 853.647C807.631 829.838 794.286 833.021 767.057 833.034C767.019 831.095 766.682 825.589 766.354 823.945C764.205 813.189 763.307 771.295 756.654 764.566L757.275 760.858Z"/><path fill="#EAB164" d="M306.67 757.693C312.143 778.758 318.905 799.671 324.366 820.769C325.273 824.274 326.354 828.102 327.452 831.554L326.676 831.776C318.324 834.086 317.035 832.164 312.965 841.176C308.54 837.377 305.824 835.077 299.772 833.705C297.248 833.132 292.059 834.41 291.44 832.611C286.187 815.671 281.584 798.323 276.735 781.226C286.126 778.728 291.341 780.072 301.013 774.153C303.581 768.902 303.938 761.964 306.67 757.693Z"/><path fill="#D84F1D" d="M306.875 736.014C313.949 731.703 320.857 727.528 328.6 724.445C342.701 747.955 359.958 770.294 381.011 788.071C383.773 790.593 386.353 792.713 389.263 795.071C377.607 794.278 343.588 778.755 331.068 774.252C326.645 772.661 320.252 769.429 315.621 768.49C312.59 759.485 309.382 745.502 306.875 736.014Z"/><path fill="#F47731" d="M759.737 745.377C785.16 764.843 805.764 790.483 825.275 815.491C829.925 821.45 835.803 827.024 840.31 832.696C836.345 832.929 826.491 832.676 823.522 833.408C820.789 832.939 813.502 819.466 810.679 816.51C795.35 800.459 775.262 772.448 757.275 760.858C758.183 755.634 758.983 750.626 759.737 745.377Z"/><path fill="#F47731" d="M255.79 752.368C260.099 755.827 261.872 756.931 264.44 761.864C253.776 771.15 241.233 785.742 232.198 796.729C223.166 807.713 210.617 821.982 202.371 833.436C197.301 833.501 192.092 833.645 187.037 833.434C190.541 828.145 194.914 822.422 198.858 817.412C216.445 795.073 234.947 771.689 255.79 752.368Z"/><path fill="#F5DE89" d="M266.465 744.45C277.068 741.032 288.812 738.253 299.71 736.025C301.905 741.081 305.031 752.236 306.67 757.693C303.938 761.964 303.581 768.902 301.013 774.153C291.341 780.072 286.126 778.728 276.735 781.226C273.201 770.17 269.696 755.924 266.465 744.45Z"/><path fill="#994512" d="M737.448 833.234C746.445 810.819 751.423 788.026 756.654 764.566C763.307 771.295 764.205 813.189 766.354 823.945C766.682 825.589 767.019 831.095 767.057 833.034C757.215 833.017 747.277 832.916 737.448 833.234Z"/><path fill="#F5DE89" d="M721.732 736.272C732.746 736.073 744.305 737.047 755.123 739.197C754.659 747.962 753.417 754.339 751.791 762.908C743.782 754.729 730.435 756.286 719.327 753.261L718.628 753.065L721.732 736.272Z"/><path fill="#695241" d="M494.584 822.21C506.631 823.055 518.184 822.975 530.214 822.416L530.195 833.955C514.657 834.183 508.169 835.321 495.039 845.197L494.584 822.21Z"/><path fill="#FEFEFD" d="M580.28 106.614C586.888 108.673 596.887 111.486 602.45 115.154C635.833 130.902 669.204 161.153 682.29 196.12C686.018 202.545 686.84 205.583 685.003 213.424C684.393 216.026 681.943 222.056 680.394 224.087C679.186 227.201 677.888 228.863 675.965 231.531C698.769 211.888 703.8 182.82 701.067 154.208C706.741 162.919 712.832 174.426 715.854 184.357C717.056 186.756 717.912 189.105 718.816 191.614C725.152 209.203 730.431 226.874 719.264 243.662L721.109 245.318C750.934 270.311 773.485 312.903 777.911 351.753C778.011 352.626 778.032 353.469 778.059 354.347C783.742 388.2 778.566 445.611 760.334 474.765C754.69 472.731 751.655 472.255 745.746 475.304C738.469 479.059 731.32 485.218 724.411 489.83C725.18 470.197 729.928 449.18 723.624 429.811C721.137 422.171 718.078 414.424 715.265 406.874C707.953 389.642 701.874 347.42 700.166 327.528C699.652 321.543 700.031 305.482 699.25 302.342C696.137 302.162 650.163 315.093 644.442 316.944C646.662 306.993 648.662 291.168 643.044 281.861C642.235 280.522 642.363 280.736 641.24 280.532C640.551 282.071 641.446 286.309 641.565 288.891C642.155 296.604 642.462 312.333 641.616 319.982L642.337 319.8C647.869 318.431 654.913 317.591 660.663 316.593C675.508 314.018 685.815 310.852 698.503 302.79C696.532 311.271 695.087 317.757 694.287 326.484C675.416 326.594 655.471 326.344 636.674 326.852C635.559 318.565 633.199 310.954 632.227 302.505L632.126 301.676L632.071 301.178C624.797 305.293 614.1 307.965 605.47 312.219C553.853 337.661 501.949 372.713 466.138 418.452C464.311 420.786 455.004 434.712 454.239 435.205C450.874 424.701 461.208 371.921 466.247 362.401C476.688 324.804 498.802 286.938 525.645 258.802L525 258.483C515.964 266.443 507.731 274.542 499.682 283.492C497.586 285.822 489.373 297.095 487.723 297.847C409.025 333.687 342.109 390.529 306.708 470.592C273.552 545.577 266.7 622.772 269.675 703.719C268.491 702.118 266.874 700.065 265.823 698.437C261.238 692.942 256.867 685.924 252.75 680.028C186.501 585.149 179.092 460.096 225.928 355.303C233.521 338.313 242.1 320.213 253.836 305.747C248.279 307.199 236.313 326.729 233.173 332.045C199.641 388.811 186.793 454.148 189.127 519.644C181.406 519.361 171.916 517.704 164.351 516.369C134.423 511.087 104.406 502.208 79.1918 484.722C76.0586 482.55 71.3001 479.651 68.4046 477.355C67.6698 477.016 67.4241 476.811 66.7493 476.362C68.2809 475.036 83.2925 469.551 86.5023 467.911C120.499 450.533 152.926 416.382 171.517 383.083C199.63 332.725 224.41 279.194 266.747 238.559C280.381 225.474 297.692 212.659 313.546 202.091C313.415 202.08 313.284 202.07 313.153 202.059C294.195 207.804 262.593 234.389 250.574 246.218C221.377 231.778 193.126 207.537 172.954 182.105L169.6 179.303C182.317 181.734 196.83 182.152 209.729 182.119C248.27 182.027 286.37 175.323 323.205 164.196C341.456 158.587 359.555 152.51 377.907 147.22C453.473 125.439 541.555 117.075 613.501 155.383C625.739 176.84 631.007 189.905 639.15 213.326C638.028 193.709 632.543 180.268 624.804 162.694C623.21 160.757 619.032 152.109 617.032 149.189C606.894 134.389 595.251 116.615 580.28 106.614Z"/><path fill="#AAABCB" d="M524.947 255.093L526.004 256.395C525.747 257.556 525.703 257.5 525 258.483C515.964 266.443 507.731 274.542 499.682 283.492C497.586 285.822 489.373 297.095 487.723 297.847C409.025 333.687 342.109 390.529 306.708 470.592C273.552 545.577 266.7 622.772 269.675 703.719C268.491 702.118 266.874 700.065 265.823 698.437C266.053 695.787 263.363 689.294 262.355 686.522C234.891 611.024 228.425 524.934 246.824 446.568C254.505 413.856 270.498 382.482 285.184 352.141L285.529 352.522C282.791 359.286 282.886 363.313 281.223 370.034C274.775 396.087 271.657 426.421 272.105 453.293C282.967 439.59 293.827 425.342 305.237 412.124C351.339 358.715 405.923 312.418 468.83 279.985C486.433 270.909 506.095 261.331 524.947 255.093Z"/><defs><linearGradient id="gradient_7" gradientUnits="userSpaceOnUse" x1="88.969604" y1="362.47647" x2="281.82043" y2="389.73428"><stop offset="0" stop-color="#9997C0"/><stop offset="1" stop-color="#ABB1CF"/></linearGradient></defs><path fill="url(#gradient_7)" d="M68.4046 477.355C75.0081 478.18 78.9085 479.641 86.7582 479.72C107.621 479.931 136.68 473.395 152.976 459.99C159.132 454.926 171.514 430.074 175.279 422.352C190.436 391.04 204.623 359.591 222.825 329.849C231.31 315.984 236.479 305.861 248.872 294.766C258.633 286.027 267.668 275.939 278.336 267.977C286.24 262.079 293.602 255.014 301.953 249.753L302.236 250.646C288.914 263.774 277.333 276.18 266.056 291.145C264.093 293.75 255.6 304.511 253.836 305.747C248.279 307.199 236.313 326.729 233.173 332.045C199.641 388.811 186.793 454.148 189.127 519.644C181.406 519.361 171.916 517.704 164.351 516.369C134.423 511.087 104.406 502.208 79.1918 484.722C76.0586 482.55 71.3001 479.651 68.4046 477.355Z"/><path fill="#AAABCB" d="M466.247 362.401C468.77 360.343 482.262 340.91 485.384 336.885C505.155 311.396 524.868 288.601 551.987 270.734L552.192 271.667C531.635 287.612 494.627 342.664 486.786 367.464C489.216 365.567 491.586 363.656 493.981 361.72C534.435 329.021 580.211 298.558 630.076 282.608C628.909 287.94 630.617 294.214 631.961 299.455C637.047 295.404 638.142 294.364 641.565 288.891C642.155 296.604 642.462 312.333 641.616 319.982L642.337 319.8C647.869 318.431 654.913 317.591 660.663 316.593C675.508 314.018 685.815 310.852 698.503 302.79C696.532 311.271 695.087 317.757 694.287 326.484C675.416 326.594 655.471 326.344 636.674 326.852C635.559 318.565 633.199 310.954 632.227 302.505L632.126 301.676L632.071 301.178C624.797 305.293 614.1 307.965 605.47 312.219C553.853 337.661 501.949 372.713 466.138 418.452C464.311 420.786 455.004 434.712 454.239 435.205C450.874 424.701 461.208 371.921 466.247 362.401Z"/><path fill="#AAABCB" d="M778.059 354.347C783.742 388.2 778.566 445.611 760.334 474.765C754.69 472.731 751.655 472.255 745.746 475.304C738.469 479.059 731.32 485.218 724.411 489.83C725.18 470.197 729.928 449.18 723.624 429.811C721.137 422.171 718.078 414.424 715.265 406.874C723.116 399.663 726.763 393.752 732.082 384.623C735.359 391.711 736.837 400.953 739.838 408.509C746.228 393.37 750.55 383.923 755.121 368.22C757.689 383.005 760.316 396.707 764.568 411.172C772.873 393.998 776.58 373.192 778.059 354.347Z"/><path fill="#AAABCB" d="M172.954 182.105C185.271 185.572 196.307 190.959 209.592 194.788C250.108 206.466 286.916 200.208 326.559 188.837C335.982 186.134 347.228 181.501 356.202 179.139L356.243 179.433C345.758 184.275 335.952 188.997 325.713 194.408C321.747 196.504 316.115 200.762 313.546 202.091C313.415 202.08 313.284 202.07 313.153 202.059C294.195 207.804 262.593 234.389 250.574 246.218C221.377 231.778 193.126 207.537 172.954 182.105Z"/><path fill="#AAABCB" d="M580.28 106.614C586.888 108.673 596.887 111.486 602.45 115.154C602.798 118.23 612.256 126.444 614.765 129.488C637.641 157.234 659.641 185.932 654.972 224.028C652.517 204.242 642.559 188.007 631.794 171.723C630.617 169.943 626.585 163.235 625.203 162.488L624.804 162.694C623.21 160.757 619.032 152.109 617.032 149.189C606.894 134.389 595.251 116.615 580.28 106.614Z"/><path fill="#AAABCB" d="M715.854 184.357C717.056 186.756 717.912 189.105 718.816 191.614C725.152 209.203 730.431 226.874 719.264 243.662L721.109 245.318C709.609 252.999 701.461 257.574 687.779 260.067C710.257 244.625 714.388 228.074 716.193 201.161C716.537 196.022 715.428 190.311 715.776 185.347L715.854 184.357Z"/><path fill="#AAABCB" d="M682.29 196.12C686.018 202.545 686.84 205.583 685.003 213.424C684.393 216.026 681.943 222.056 680.394 224.087C680.495 221.566 681.224 216.878 681.459 213.787C681.912 207.83 681.861 201.935 682.29 196.12Z"/><path fill="#8D8CAA" d="M536.564 250.846C532.921 253.621 529.186 256.107 525.645 258.802L525 258.483C525.703 257.5 525.747 257.556 526.004 256.395L524.947 255.093C528.314 254.247 533.286 252.221 536.564 250.846Z"/><path fill="#AFAAA9" d="M301.953 249.753C303.584 248.289 305.051 246.924 306.812 245.607L307.548 245.897L308.229 245.001C306.817 247.232 304.354 249.007 302.236 250.646L301.953 249.753Z"/><path fill="#AFAAA9" d="M551.987 270.734C553.207 269.415 553.472 268.962 555.144 268.223L555.295 268.911C554.09 270.305 553.627 270.596 552.192 271.667L551.987 270.734Z"/><path fill="#F8DAC2" d="M453.398 444.208L454.266 444.799C456.055 444.038 458.469 439.756 459.6 437.851C466.649 425.973 475.202 414.007 484.965 404.122C521.298 367.337 579.05 326.148 627.813 309.219C628.822 314.996 630.537 327.912 633.919 332.339C640.538 331.494 652.938 331.828 660.061 331.902C671.068 332.017 683.306 331.784 694.207 332.35C698.82 352.015 700.882 373.241 705.693 392.94C708.264 402.922 711.862 412.608 715.089 422.364C716.926 427.917 721.148 436.929 721.62 442.435C723.527 464.71 718.606 486.647 714.732 508.477C711 529.507 706.636 550.679 701.745 571.488C701.087 574.246 697.626 589.813 696.75 591.846C695.254 601.491 692.616 613.411 687.919 622.017C673.34 648.733 564.911 702.538 534.082 711.24C522.717 714.447 511.508 715.574 499.765 713.873C474.042 710.147 432.917 687.519 409.454 674.377C390.899 663.984 360.747 647.636 346.987 632.166C343.128 627.828 340.448 622.59 338.186 617.279C333.311 605.836 330.13 593.404 326.466 581.514C317.983 553.99 310.342 526.236 302.525 498.517C310.814 469.324 328.242 437.144 346.953 413.259L349.023 413.955C358.445 414.555 367.941 415.325 377.175 417.16C397.092 421.118 433.131 438.097 447.618 451.662C450.021 453.772 451.975 455.53 454.228 457.798C453.79 456.007 450.31 452.471 448.835 450.838C449.987 447.591 450.741 446.357 453.398 444.208Z"/><path fill="#010101" d="M338.344 513.949C338.472 511.012 337.994 507.167 338.015 503.912C338.226 470.276 370.164 440.005 403.586 440.744C420.774 441.123 435.118 450.541 446.69 462.789C452.538 470.372 457.775 479.858 460.54 489.028C472.219 492.647 461.651 556.97 445.485 561.896C422.879 568.783 396.052 565.23 373.198 560.154C360.851 557.412 356.916 546.373 352.39 543.816C346.864 539.668 342.49 528.048 339.963 521.694L339.705 521.726L338.787 520.719C337.214 520.477 336.892 520.574 335.625 519.613C336.51 517.331 337.163 516.105 338.344 513.949Z"/><defs><linearGradient id="gradient_8" gradientUnits="userSpaceOnUse" x1="397.97241" y1="460.78546" x2="401.51999" y2="519.62457"><stop offset="0" stop-color="#28243D"/><stop offset="1" stop-color="#598D9B"/></linearGradient></defs><path fill="url(#gradient_8)" d="M386.789 461.226C393.596 456.883 407.441 455.222 415.252 456.855C418.065 457.443 424.211 458.523 426.527 459.93C425.465 460.545 423.328 459.276 420.808 459.216L421.918 460.003C419.663 462.787 419.719 462.326 415.694 463.245C416.822 464.042 417.1 463.937 418.506 464.169C426.37 466.432 430.832 469.573 434.096 477.378C436.697 487.173 432.619 497.395 422.212 500.079C419.144 500.87 416.849 500.145 413.874 499.435C415.289 500.783 415.022 500.563 416.698 501.322C420.686 503.128 425.227 507.817 426.903 511.793L425.174 512.502C430.339 520.596 431.225 527.405 425.612 535.672C419.093 541.971 413.391 543.063 405.482 538.696C405.01 539.048 403.863 539.854 403.495 540.216C398.818 541.589 396.041 542.321 391.944 545.156C390.526 545.998 390.564 545.917 389.536 547.186C386.488 543.19 384.713 540.349 382.774 535.703C381.237 533.758 379.609 528.58 379.104 526.138C376.309 519.023 376.095 508.713 376.51 501.209C379.696 491.695 382.643 483.728 385.229 474.014C387.74 467.915 399.811 460.921 406.246 459.605C408.887 459.065 417.952 459.01 419.143 458.053C409.779 456.519 394.951 455.884 386.808 463.063C385.3 464.393 385.511 464.543 383.644 465.425C384.83 463.762 385.63 463.251 386.789 461.226Z"/><path fill="#FEFEFD" d="M418.506 464.169C426.37 466.432 430.832 469.573 434.096 477.378C436.697 487.173 432.619 497.395 422.212 500.079C419.144 500.87 416.849 500.145 413.874 499.435C397.227 492.911 396.909 465.697 418.506 464.169Z"/><path fill="#0E234C" d="M398.486 527.091C398.008 509.924 412.215 499.618 425.174 512.502C430.339 520.596 431.225 527.405 425.612 535.672C419.093 541.971 413.391 543.063 405.482 538.696L405.169 538.376L404.652 537.837C402.18 535.287 401.896 534.896 400.085 531.952L398.486 527.091Z"/><path fill="#33B0E1" d="M379.104 526.138C379.325 524.242 379.216 523.773 378.683 521.932L379.111 521.115C382.792 520.948 394.348 520.205 397.448 520.512L397.445 521.357C397.446 524.005 397.308 524.698 398.486 527.091L400.085 531.952C401.896 534.896 402.18 535.287 404.652 537.837L405.169 538.376L405.482 538.696C405.01 539.048 403.863 539.854 403.495 540.216C398.818 541.589 396.041 542.321 391.944 545.156C390.526 545.998 390.564 545.917 389.536 547.186C386.488 543.19 384.713 540.349 382.774 535.703C381.237 533.758 379.609 528.58 379.104 526.138Z"/><path fill="#5FC6E4" d="M382.774 535.703C384.242 536.235 384.577 537.771 385.661 539.572C388.771 539.297 397.551 537.723 399.559 535.427C400.269 533.419 400.162 534.475 399.47 532.13L400.085 531.952C401.896 534.896 402.18 535.287 404.652 537.837L405.169 538.376L405.482 538.696C405.01 539.048 403.863 539.854 403.495 540.216C398.818 541.589 396.041 542.321 391.944 545.156C390.526 545.998 390.564 545.917 389.536 547.186C386.488 543.19 384.713 540.349 382.774 535.703Z"/><path fill="#FEFEFD" d="M439.488 465.293C446.217 471.291 455.048 481.116 459.489 488.983C459.839 488.998 460.189 489.013 460.54 489.028C472.219 492.647 461.651 556.97 445.485 561.896C422.879 568.783 396.052 565.23 373.198 560.154C360.851 557.412 356.916 546.373 352.39 543.816C350.283 537.982 349.596 533.909 349.976 527.782C350.865 524.781 351.307 520.68 352.212 517.211C355.764 503.595 362.749 490.931 373.644 481.803L374.292 482.329C370.332 494.807 369.274 504.778 371.256 517.79C375.435 545.225 401.788 573.678 430.742 557.729C441.198 551.966 447.274 541.252 450.359 529.986C456.615 507.292 451.441 485.063 439.488 465.293Z"/><defs><linearGradient id="gradient_9" gradientUnits="userSpaceOnUse" x1="434.86475" y1="474.71683" x2="431.89148" y2="518.1366"><stop offset="0" stop-color="#2C2432"/><stop offset="1" stop-color="#62899D"/></linearGradient></defs><path fill="url(#gradient_9)" d="M439.974 474.958C446.764 491.268 452.161 509.323 446.993 527.082C446.355 530.674 444.422 537.803 442.272 540.632C439.369 539.194 433.941 540.46 425.612 535.672C431.225 527.405 430.339 520.596 425.174 512.502L426.903 511.793C425.227 507.817 420.686 503.128 416.698 501.322C415.022 500.563 415.289 500.783 413.874 499.435C416.849 500.145 419.144 500.87 422.212 500.079C432.619 497.395 436.697 487.173 434.096 477.378C436.624 475.875 437.117 475.504 439.974 474.958Z"/><path fill="#33B0E1" d="M425.174 512.502L426.903 511.793C427.705 513.494 428.893 516.972 429.949 517.988C432.571 518.214 445.748 518.96 447.071 519.604C447.581 523.241 445.739 524.532 446.993 527.082C446.355 530.674 444.422 537.803 442.272 540.632C439.369 539.194 433.941 540.46 425.612 535.672C431.225 527.405 430.339 520.596 425.174 512.502Z"/><path fill="#6EE3E5" d="M425.612 535.672C433.941 540.46 439.369 539.194 442.272 540.632C430.966 562.619 406.501 565.91 389.536 547.186C390.564 545.917 390.526 545.998 391.944 545.156C396.041 542.321 398.818 541.589 403.495 540.216C403.863 539.854 405.01 539.048 405.482 538.696C413.391 543.063 419.093 541.971 425.612 535.672Z"/><path fill="#A1EDDC" d="M403.495 540.216C403.254 542.668 400.838 544.649 399.05 546.361C396.91 546.208 393.58 546.27 391.944 545.156C396.041 542.321 398.818 541.589 403.495 540.216Z"/><path fill="#AFAAA9" d="M386.789 461.226C385.63 463.251 384.83 463.762 383.644 465.425C379.438 470.482 376.566 476.169 374.292 482.329L373.644 481.803C362.749 490.931 355.764 503.595 352.212 517.211C351.307 520.68 350.865 524.781 349.976 527.782C346.38 522.427 352.193 499.759 354.729 493.728C361.673 477.217 370.451 468.126 386.789 461.226Z"/><path fill="#1E263F" d="M421.918 460.003C429.585 462.385 435.886 467.08 439.61 474.253L439.974 474.958C437.117 475.504 436.624 475.875 434.096 477.378C430.832 469.573 426.37 466.432 418.506 464.169C417.1 463.937 416.822 464.042 415.694 463.245C419.719 462.326 419.663 462.787 421.918 460.003Z"/><path fill="#383D45" d="M376.51 501.209C376.478 492.764 379.909 480.401 385.229 474.014C382.643 483.728 379.696 491.695 376.51 501.209Z"/><path fill="#FDE9DB" d="M338.344 513.949C338.769 515.938 339.709 519.816 339.963 521.694L339.705 521.726L338.787 520.719C337.214 520.477 336.892 520.574 335.625 519.613C336.51 517.331 337.163 516.105 338.344 513.949Z"/><path fill="#EA9E76" d="M346.953 413.259L349.023 413.955C358.445 414.555 367.941 415.325 377.175 417.16C397.092 421.118 433.131 438.097 447.618 451.662C446.494 455.65 449.342 457.747 446.69 462.789C435.118 450.541 420.774 441.123 403.586 440.744C370.164 440.005 338.226 470.276 338.015 503.912C337.994 507.167 338.472 511.012 338.344 513.949C337.163 516.105 336.51 517.331 335.625 519.613C333.739 524.05 330.622 532.375 330.582 537.227C330.388 560.819 338.793 585.196 345.653 607.616C349.55 619.503 361.4 626.201 370.67 633.057C397.797 653.117 430.208 670.165 458.999 686.375C495.178 706.745 510.22 717.246 550.901 698.819C570.168 690.091 589.377 681.302 607.318 669.125C630.987 655.252 651.54 642.111 672.072 623.839C677.849 618.698 695.074 592.832 696.75 591.846C695.254 601.491 692.616 613.411 687.919 622.017C673.34 648.733 564.911 702.538 534.082 711.24C522.717 714.447 511.508 715.574 499.765 713.873C474.042 710.147 432.917 687.519 409.454 674.377C390.899 663.984 360.747 647.636 346.987 632.166C343.128 627.828 340.448 622.59 338.186 617.279C333.311 605.836 330.13 593.404 326.466 581.514C317.983 553.99 310.342 526.236 302.525 498.517C310.814 469.324 328.242 437.144 346.953 413.259Z"/><path fill="#EA9E76" d="M453.398 444.208L454.266 444.799C456.055 444.038 458.469 439.756 459.6 437.851C466.649 425.973 475.202 414.007 484.965 404.122C521.298 367.337 579.05 326.148 627.813 309.219C628.822 314.996 630.537 327.912 633.919 332.339C626.936 333.864 616.251 339.434 609.766 342.719C571.778 361.958 537.625 386.939 506.042 415.366C492.02 427.985 476.002 437.536 466.404 454.745C464.571 457.833 462.429 461.134 460.526 464.28C459.174 462.951 455.084 459.106 454.228 457.798C453.79 456.007 450.31 452.471 448.835 450.838C449.987 447.591 450.741 446.357 453.398 444.208Z"/><path fill="#010101" d="M617.48 439.621C622.115 439.443 626.765 439.307 631.318 440.248C681.404 450.606 706.949 506.369 668.22 545.034C667.885 547.134 661.079 551.606 659.131 553.146C642.829 566.038 622.673 569.311 602.103 566.485C596.772 566.691 588.531 566.628 583.413 565.221C581.374 564.661 580.833 563.724 579.858 561.969C562.239 545.809 552.937 526.505 556.525 502.037C556.984 498.902 560.682 491.407 560.259 489.115C554.757 482.798 578.817 457.62 583.888 453.172C590.667 448.444 598.939 444.085 606.962 441.835C609.854 441.025 614.084 440.658 616.846 439.818L617.48 439.621Z"/><path fill="#FEFEFD" d="M560.259 489.115C569.101 473.575 578.035 460.172 595.096 452.86C589.342 458.012 584.156 462.65 579.828 469.337C573.476 479.152 571.163 489.131 570.342 500.751C568.523 526.505 582.551 559.819 611.933 561.414C637.169 562.785 655.378 532.906 655.362 510.302C655.609 494.071 650.024 477.975 638.653 466.255C633.639 461.081 629.67 459.375 623.082 456.901C655.45 461.121 678.91 490.537 673.979 523.288C672.813 531.03 670.652 537.654 668.22 545.034C667.885 547.134 661.079 551.606 659.131 553.146C642.829 566.038 622.673 569.311 602.103 566.485C596.772 566.691 588.531 566.628 583.413 565.221C581.374 564.661 580.833 563.724 579.858 561.969C562.239 545.809 552.937 526.505 556.525 502.037C556.984 498.902 560.682 491.407 560.259 489.115Z"/><path fill="#FDE9DB" d="M579.858 561.969C585.369 562.384 597.952 563.377 602.103 566.485C596.772 566.691 588.531 566.628 583.413 565.221C581.374 564.661 580.833 563.724 579.858 561.969Z"/><defs><linearGradient id="gradient_10" gradientUnits="userSpaceOnUse" x1="613.63586" y1="456.91885" x2="611.66101" y2="538.77588"><stop offset="0" stop-color="#2A2A50"/><stop offset="1" stop-color="#5E9CA8"/></linearGradient></defs><path fill="url(#gradient_10)" d="M572.788 516.189C571.644 503.827 571.392 482.988 580.394 472.861C586.236 466.288 606.045 457.3 615.354 457.265C645.608 457.148 660.388 502.536 650.405 526.02C649.109 530.971 646.09 537.026 642.92 541.044C638.592 547.107 634.672 551.387 628.172 555.206C611.359 565.085 589.027 555.489 580.204 539.145C575.806 533.048 574.012 523.443 572.788 516.189Z"/><path fill="#6EE3E5" d="M627.152 523.539C628.266 526.85 628.943 529.744 631.199 532.469C633.969 535.815 640.432 537.832 642.92 541.044C638.592 547.107 634.672 551.387 628.172 555.206C611.359 565.085 589.027 555.489 580.204 539.145L579.95 535.947C585.342 533.75 591.111 535.657 597.172 531.889C597.728 532.68 597.499 532.317 598.026 533.24L598.414 533.93L598.975 533.923L600.589 534.314C604.846 539.132 606.826 539.88 612.901 541.263C619.498 539.359 620.922 537.439 624.413 531.71C627 529.367 626.793 527.048 627.152 523.539Z"/><path fill="#A1EDDC" d="M609.902 550.102C614.459 551.96 619.307 551.431 620.69 552.508L620.41 554.014C618.573 554.56 612.036 554.34 609.827 554.324C609.204 553.068 609.673 551.586 609.902 550.102Z"/><path fill="#1E263F" d="M602.755 513.162C610.227 508.39 613.618 507.441 621.174 512.723C623.774 513.6 625.503 517.422 626.582 519.849L627.152 523.539C626.793 527.048 627 529.367 624.413 531.71C620.922 537.439 619.498 539.359 612.901 541.263C606.826 539.88 604.846 539.132 600.589 534.314C597.11 527.431 597.195 523.586 600.153 516.668C601.673 515.219 601.729 515.038 602.755 513.162Z"/><path fill="#A1EDDC" d="M621.174 512.723C623.774 513.6 625.503 517.422 626.582 519.849L627.152 523.539C626.793 527.048 627 529.367 624.413 531.71C626.867 523.751 625.564 519.42 621.174 512.723Z"/><path fill="#33B0E1" d="M626.582 519.849C630.495 520.667 648.255 522.65 650.046 523.366C650.365 524.581 650.35 524.751 650.405 526.02C649.109 530.971 646.09 537.026 642.92 541.044C640.432 537.832 633.969 535.815 631.199 532.469C628.943 529.744 628.266 526.85 627.152 523.539L626.582 519.849Z"/><path fill="#BED7BF" d="M598.975 533.923C597.245 529.304 594.523 519.839 600.153 516.668C597.195 523.586 597.11 527.431 600.589 534.314L598.975 533.923Z"/><path fill="#FEFEFD" d="M589.276 469.021C595.132 466.937 600.126 465.043 606.034 468.216C626.387 479.149 610.97 511.099 589.584 499.796C586.614 498.226 585.064 494.208 582.977 492.082L582.376 491.818C578.177 484.609 581.709 470.2 589.276 469.021Z"/><path fill="#010101" d="M582.977 492.082L582.376 491.818C578.177 484.609 581.709 470.2 589.276 469.021C581.465 476.583 580.311 481.572 582.977 492.082Z"/><path fill="#010101" d="M626.418 389.581C642.533 393.004 680.952 408.082 694.803 416.66L701.463 421.833C682.264 422.04 662.082 423.508 643.624 429.01C637.994 430.688 621.013 435.713 617.48 439.621L616.846 439.818C614.084 440.658 609.854 441.025 606.962 441.835C598.939 444.085 590.667 448.444 583.888 453.172C582.809 450.199 580.754 449.28 577.9 449.663C576.416 450.78 556.504 466.242 556.658 466.206C557.148 464.94 557.221 464.981 558.15 463.956C556.062 460.176 563.477 451.472 563.409 446.672L562.394 444.997C562.176 439.604 570.351 431.623 573.978 428.025C589.001 413.122 607.563 399.185 626.418 389.581Z"/><path fill="#FEFEFD" d="M627.489 394.873C643.754 400.363 657.914 405.228 673.68 411.877C661.196 413.353 650.155 414.066 637.805 416.773C605.741 423.801 580.022 439.797 558.15 463.956C556.062 460.176 563.477 451.472 563.409 446.672C575.188 429.753 609.157 404.267 627.489 394.873Z"/><path fill="#EA9E76" d="M577.9 449.663C612.834 423.499 651.941 415.35 694.803 416.66L701.463 421.833C682.264 422.04 662.082 423.508 643.624 429.01C637.994 430.688 621.013 435.713 617.48 439.621L616.846 439.818C614.084 440.658 609.854 441.025 606.962 441.835C598.939 444.085 590.667 448.444 583.888 453.172C582.809 450.199 580.754 449.28 577.9 449.663Z"/><path fill="#D97959" d="M385.347 567.66C391.241 567.087 399.629 568.998 404.262 572.463C425.009 587.981 406.862 606.351 388.12 608.853C372.343 610.152 350.721 595.744 363.439 578.781C368.459 572.085 377.323 568.717 385.347 567.66Z"/><path fill="#D97959" d="M641.381 575.727C647.977 575.562 653.001 576.447 659.401 578.603C666.931 581.14 673.319 588.391 666.555 595.679C661.279 601.364 651.342 602.694 643.759 603.055C635.602 603.017 626.24 601.924 619.77 596.796C609.905 588.977 618.548 580.425 627.511 577.86C632.948 576.304 635.809 576.055 641.381 575.727Z"/><path fill="#010101" d="M572.454 622.898C574.606 623.567 575.156 624.25 575.209 626.276C573.348 629.629 566.905 631.848 563.395 633.141C529.705 645.543 486.485 645.258 454.141 629.492C452.169 628.179 452.452 628.095 452.085 626.288C452.621 624.635 452.139 625.271 453.569 624.305C457.468 623.838 467.396 629.405 472.152 631.107C495.562 639.486 523.403 639.677 547.203 632.82C556.104 630.255 564.152 626.623 572.454 622.898Z"/><path fill="#010101" d="M499.887 577.336C501.062 570.677 505.383 568.745 510.858 565.741C508.512 568.384 506.407 570.583 504.552 573.603C508.305 581.917 512.359 585.075 516.501 591.853C517.681 593.244 517.616 592.665 517.866 594.103C516.004 596.366 513.006 596.356 510.344 595.799C500.847 593.811 498.421 585.737 499.887 577.336Z"/><path fill="#EA9E76" d="M499.887 577.336C502.674 583.246 508.671 593.17 516.501 591.853C517.681 593.244 517.616 592.665 517.866 594.103C516.004 596.366 513.006 596.356 510.344 595.799C500.847 593.811 498.421 585.737 499.887 577.336Z"/><path fill="#EA9E76" d="M346.953 413.259C376.248 375.292 410.58 346.382 452.295 322.688C463.153 316.522 471.489 311.904 482.952 307.062C473.993 324.888 470.077 332.716 463.831 351.489C458.147 369.094 453.41 386.079 450.217 404.377C448.977 411.482 448.512 419.138 447.507 426.31C438.887 416.129 417.492 396.52 404.848 392.285C385.583 390.668 361.126 398.236 349.023 413.955L346.953 413.259Z"/><path fill="#F8DAC2" d="M404.848 392.285C412.442 385.521 456.112 350.909 463.831 351.489C458.147 369.094 453.41 386.079 450.217 404.377C448.977 411.482 448.512 419.138 447.507 426.31C438.887 416.129 417.492 396.52 404.848 392.285Z"/><path fill="#994512" d="M354.074 657.964C356.371 659.231 358.97 661.002 361.146 662.54C384.088 678.745 409.085 690.687 433.606 704.256C433.229 715.976 432.122 728.898 431.241 740.638C426.975 739.528 422.628 738.212 418.384 736.986C391.254 728.398 358.15 712.945 340.109 690.165C337.542 686.923 333.811 682.027 334.682 677.741C336.412 669.228 347.349 662.451 354.074 657.964Z"/><path fill="#EA9E76" d="M440.069 706.701C446.598 709.159 456.922 713.932 463.414 716.727C497.729 731.5 517.932 732.47 553.06 719.614C562.802 716.048 575.476 709.965 584.938 706.921C584.845 714.7 585.839 723.392 586.692 731.12C587.145 734.673 587.456 738.211 587.788 741.777C531.973 751.467 493.608 753.581 437.275 741.787C437.595 731.548 439.212 717.332 440.069 706.701Z"/><path fill="#F8DAC2" d="M723.494 496.554C739.273 488.382 756.373 465.014 769.126 490.882C792.759 538.822 756.174 595.683 706.209 605.813C707.798 596.102 709.44 586.387 710.756 576.635C712.407 576.656 713.589 576.871 714.99 576.062C723.929 575.954 731.602 572.593 738.85 567.639C743.042 563.963 745.792 559.332 746.285 553.726C747.568 539.11 740.252 529.872 731.786 519.398C737.049 514.008 742.978 509.049 749.541 505.326C754.554 511.707 758.756 522.911 760.541 530.813C761.015 532.911 761.519 536.882 762.396 538.405C762.308 530.265 761.868 522.981 759.23 515.182C754.99 502.645 754.747 494.074 740.557 505.178C732.336 511.61 724.27 517.847 718.488 526.894C719.866 517.593 721.455 505.567 723.494 496.554Z"/><path fill="#D97959" d="M731.786 519.398C737.049 514.008 742.978 509.049 749.541 505.326C754.554 511.707 758.756 522.911 760.541 530.813C761.015 532.911 761.519 536.882 762.396 538.405C763.819 547.123 751.375 570.99 740.363 568.388L739.959 567.859L738.85 567.639C743.042 563.963 745.792 559.332 746.285 553.726C747.568 539.11 740.252 529.872 731.786 519.398Z"/><path fill="#994512" d="M663.075 663.373C670.005 663.481 682.981 672.202 684.621 679.014C685.604 683.097 685.008 688.002 682.77 691.483C667.659 714.984 634.053 727.568 608.627 735.75L593.169 740.204C591.946 729.01 590.511 716.214 589.992 705.063C593.322 702.967 596.945 700.838 600.445 699.034C621.911 687.971 642.435 675.906 663.075 663.373Z"/><path fill="#1A86C6" d="M287.697 611.264C301.473 618.04 308.214 619.729 323.63 619.631C325.134 625.094 326.75 628.293 329.801 632.99C320.124 642.127 308.629 652.595 303.048 664.905C296.953 678.351 301.455 688.543 306.48 701.281L312.099 714.466C308.071 715.878 304.026 717.994 300.14 719.307C297.034 720.356 291.441 721.002 287.886 721.626C283.657 685.303 285.447 647.656 287.697 611.264Z"/><path fill="#695241" d="M494.199 755.558C506.853 756.982 517.78 755.927 530.295 755.43C529.919 775.866 529.97 796.43 530.027 816.867C528.206 818.404 498.982 817.458 494.805 817.23C494.085 797.294 494.48 775.7 494.199 755.558Z"/><path fill="#FEFEFD" d="M360.034 409.227C369.527 404.688 392.577 393.867 402.496 397.312C421.143 403.788 442.963 428.917 453.398 444.208C450.741 446.357 449.987 447.591 448.835 450.838C443.588 443.876 437.068 439.289 429.952 434.412C408.569 419.757 385.989 411.186 360.034 409.227Z"/><path fill="#F8DAC2" d="M288.444 549.978C295.738 559.999 303.637 571.26 313.792 578.569C315.873 584 316.999 590.021 318.921 595.342L321.403 603.518C302.939 603.656 291.862 599.038 282.682 582.385L283.735 575.48C284.432 569.749 285.523 563.815 286.482 558.102L288.444 549.978Z"/><path fill="#EA9E76" d="M283.735 575.48C292.406 588.057 303.506 594.044 318.921 595.342L321.403 603.518C302.939 603.656 291.862 599.038 282.682 582.385L283.735 575.48Z"/><path fill="#EA9E76" d="M288.444 549.978C295.738 559.999 303.637 571.26 313.792 578.569L312.326 579.285C308.891 579.199 289.957 561.456 286.482 558.102L288.444 549.978Z"/><path fill="#D97959" d="M728.393 522.876C736.707 530.34 744.642 545.55 741.972 557.065C739.476 567.83 722.845 571.235 714.99 576.062C713.589 576.871 712.407 576.656 710.756 576.635C712.239 565.215 715.779 543.82 719.442 532.758C720.154 530.609 726.279 524.911 728.393 522.876Z"/><path fill="#EA9E76" d="M293.399 530.7C294.95 531.444 299.213 535.271 300.577 536.796C306.866 543.821 307.115 554.507 310.375 563.032C311.079 564.872 312.259 569.256 312.124 571.019L311.176 570.47C302.911 562.342 296.736 554.468 289.409 545.538C290.493 539.826 291.66 536.217 293.399 530.7Z"/><path fill="#EA9E76" d="M297.276 512.826C297.987 513.491 302.184 530.105 302.309 531.686L301.635 531.566C299.226 529.462 296.698 527.557 294.167 525.603C295.059 521.378 296.22 517.027 297.276 512.826Z"/></svg>